<svg width="48" height="48" viewBox="0 0 48 48" fill="none" xmlns="http://www.w3.org/2000/svg">
<rect width="48" height="48" fill="#323238"/>
<g clip-path="url(#clip0_61385:205)">
<path d="M16.9987 18.832V33.026H12.2721V18.832H16.9987ZM17.2995 14.4492C17.3138 15.8099 16.2826 16.8984 14.6354 16.8984H14.6068C13.0169 16.8984 12 15.8099 12 14.4492C12 13.0599 13.0599 12 14.6641 12C16.2826 12 17.2852 13.0599 17.2995 14.4492ZM34 24.8906V33.026H29.2878V25.4349C29.2878 23.5299 28.6003 22.2266 26.8958 22.2266C25.5924 22.2266 24.819 23.1003 24.4753 23.9453C24.3607 24.2604 24.3177 24.6758 24.3177 25.1055V33.026H19.6055C19.6628 20.1641 19.6055 18.832 19.6055 18.832H24.3177V20.8945H24.2891C24.9049 19.9206 26.0221 18.5026 28.5716 18.5026C31.6797 18.5026 34 20.5365 34 24.8906Z" fill="white"/>
</g>
<defs>
<clipPath id="clip0_61385:205">
<rect width="21" height="24.5" fill="white" transform="translate(12.85 10)"/>
</clipPath>
</defs>
</svg>
